# xmcd CD database file
#
# Track frame offsets:
#	177
#	13350
#	32772
#	47765
#	67980
#	82130
#	101865
#	123265
#	142320
#	168970
#	203175
#	226977
#	250025
#
# Disc length: 3550 seconds
#
# Revision: 0
# Processed by: cddbd v1.5.1PL0 Copyright (c) Steve Scherf et al.
# Submitted via: CDex 1.51
#
DISCID=b80ddc0d
DTITLE=The Boogie Kings - Nine Lives
DYEAR=1992
DGENRE=Blues
TTITLE0=intro - Choo Choo
TTITLE1=Philly Walk
TTITLE2=When Something is Wrong with My Baby
TTITLE3=Papa's got a Brand New Bag
TTITLE4=In the Midnight Hour
TTITLE5=Tell it Like it is
TTITLE6=Cry, Cry, Cry
TTITLE7=St. James Infirmary
TTITLE8=I Can't Turn You Loose
TTITLE9=I've Been Loving You Too Long
TTITLE10=Harlem Shuffle
TTITLE11=Cryin' Man
TTITLE12=Shake
EXTD=YEAR: 1992
EXTT0=
EXTT1=
EXTT2=
EXTT3=
EXTT4=
EXTT5=
EXTT6=
EXTT7=
EXTT8=
EXTT9=
EXTT10=
EXTT11=
EXTT12=
PLAYORDER=
